<svg version="1.1" id="amex-svg" xmlns="http://www.w3.org/2000/svg" xmlns:xlink="http://www.w3.org/1999/xlink" x="0px" y="0px"
     viewBox="0 0 275.4 74.7" style="enable-background:new 0 0 275.4 74.7;" xml:space="preserve">
<style type="text/css">.st0{fill:#0079C1;}</style>
<g>
	<polygon class="st0" points="159.2,32.7 163.5,32.7 167.9,32.7 167.9,16.4 167.9,0 163.5,0 159.2,0 159.2,16.3 159.2,32.7 	"/>
	<path class="st0" d="M154.6,10.6c0-6.3-4.5-10.6-11.7-10.6H124v32.7h8.7V21.2h3.2l9.9,11.4h10.8l-10.8-11.8
		C151.3,19.7,154.6,15.7,154.6,10.6L154.6,10.6z M141.9,14h-9.2V7.4h9.2c2.6,0,3.9,1.5,3.9,3.3C145.8,12.6,144.5,14,141.9,14
		L141.9,14z"/>
	<path class="st0" d="M181.3,16.6V16c0-4.9,2.7-8.4,8.3-8.4h9.7V0h-10.5c-10.8,0-16.3,6.9-16.3,16v0.7c0,10.1,6.3,16,15.9,16h3
		l3.5-7.4h-5.1C184.5,25.3,181.3,22.3,181.3,16.6L181.3,16.6z"/>
	<path class="st0" d="M14.4,0L0,32.7h9.6l2.8-6.6h15.1l2.8,6.6h9.9L25.7,0H14.4L14.4,0z M15.4,18.9l4.6-10.9l4.6,10.9H15.4
		L15.4,18.9z"/>
	<polygon class="st0" points="63,20.6 55.5,0 41.8,0 41.8,32.7 50.4,32.7 50.4,9.2 59,32.7 66.8,32.7 75.4,9.2 75.4,32.7 84,32.7 
		84,0 70.4,0 63,20.6 	"/>
	<polygon class="st0" points="90.7,32.7 118.3,32.7 118.3,25.3 99.4,25.3 99.4,20 117.8,20 117.8,12.6 99.4,12.6 99.4,7.4 
		118.3,7.4 118.3,0 90.7,0 90.7,32.7 	"/>
	<path class="st0" d="M209.9,0l-14.4,32.7h9.6l2.8-6.6h15.1l2.8,6.6h9.9L221.2,0H209.9L209.9,0z M210.8,18.9l4.6-10.9l4.6,10.9
		H210.8L210.8,18.9z"/>
	<polygon class="st0" points="261.6,19.9 248.2,0 237.2,0 237.2,32.7 245.9,32.7 245.9,12 259.6,32.7 270.2,32.7 270.2,0 261.6,0 
		261.6,19.9 	"/>
	<path class="st0" d="M232.8,54.7h-8c-1.7,0-3-1-3-2.6c0-1.5,1.3-2.6,3-2.6h14.5l3.4-7.4h-18c-7.4,0-11.7,4.4-11.7,10.3
		c0,6.2,4.1,9.8,10.5,9.8h8c1.8,0,3,1,3,2.6c0,1.6-1.2,2.6-3,2.6h-17.5v7.4h17.6c7.3,0,11.7-4.3,11.7-10.6
		C243.3,58.2,239.5,54.7,232.8,54.7L232.8,54.7z"/>
	<path class="st0" d="M177.2,52.6c0-6.3-4.5-10.6-11.7-10.6h-18.9v32.7h8.7V63.3h3.2l9.9,11.4h10.8l-10.8-11.8
		C173.9,61.8,177.2,57.7,177.2,52.6L177.2,52.6z M164.5,56.1h-9.2v-6.6h9.2c2.6,0,3.9,1.5,3.9,3.3C168.4,54.6,167.1,56.1,164.5,56.1
		L164.5,56.1z"/>
	<polygon class="st0" points="181.8,74.7 209.4,74.7 209.4,67.3 190.5,67.3 190.5,62.1 208.9,62.1 208.9,54.7 190.5,54.7 
		190.5,49.5 209.4,49.5 209.4,42 181.8,42 181.8,74.7 	"/>
	<path class="st0" d="M131.2,42h-19.1v32.7h8.7V64.1h10.1c7.4,0,12-4.7,12-11C142.9,46.5,138.4,42,131.2,42L131.2,42z M130.2,56.7
		h-9.4v-7.2h9.4c2.6,0,3.9,1.6,3.9,3.6C134.1,55.1,132.8,56.7,130.2,56.7L130.2,56.7z"/>
	<path class="st0" d="M264.9,54.7h-8c-1.7,0-3-1-3-2.6c0-1.5,1.3-2.6,3-2.6h14.5l3.4-7.4h-18c-7.4,0-11.7,4.4-11.7,10.3
		c0,6.2,4.1,9.8,10.5,9.8h8c1.8,0,3,1,3,2.6c0,1.6-1.2,2.6-3,2.6h-17.5v7.4h17.6c7.3,0,11.7-4.3,11.7-10.6
		C275.4,58.2,271.6,54.7,264.9,54.7L264.9,54.7z"/>
	<polygon class="st0" points="41.8,74.7 69.4,74.7 69.4,67.3 50.5,67.3 50.5,62.1 69,62.1 69,54.7 50.5,54.7 50.5,49.5 69.4,49.5 
		69.4,42 41.8,42 41.8,74.7 	"/>
	<polygon class="st0" points="110.5,42 99.4,42 90.9,51.9 82.4,42 71,42 85.3,58.2 70.7,74.7 81.8,74.7 90.7,64.4 99.6,74.7 
		111,74.7 96.3,58 110.5,42 	"/>
</g>
</svg>
