<svg xmlns="http://www.w3.org/2000/svg" width="500.867" height="210.646" viewBox="0 0 500.867 210.646">
  <g id="norton" transform="translate(-2.048 -2.115)">
    <path id="Path_422" data-name="Path 422" d="M418.373,37.006H127.491a91.214,91.214,0,1,0,0,169.085H418.373a84.542,84.542,0,0,0,0-169.085Z" fill="#fff"/>
    <path id="Path_423" data-name="Path 423" d="M418.373,206.091H93.659a84.542,84.542,0,0,1,0-169.085H418.372a84.542,84.542,0,0,1,0,169.085M93.659,43.644a77.9,77.9,0,1,0,0,155.809H418.372a77.9,77.9,0,1,0,0-155.809H93.659Z" fill="#cfcfcf"/>
    <path id="Path_424" data-name="Path 424" d="M379.426,74.237a22.827,22.827,0,1,0,22.825,22.835,22.833,22.833,0,0,0-22.825-22.835m0,34.541a11.711,11.711,0,1,1,11.716-11.706,11.711,11.711,0,0,1-11.716,11.706" fill="#1d1d1b"/>
    <path id="Path_425" data-name="Path 425" d="M274.72,74.237a22.828,22.828,0,1,0,22.834,22.835A22.829,22.829,0,0,0,274.72,74.237m0,34.541a11.711,11.711,0,1,1,11.716-11.706,11.7,11.7,0,0,1-11.716,11.706" fill="#1d1d1b"/>
    <path id="Path_426" data-name="Path 426" d="M355.127,109.418a22.831,22.831,0,0,1-4.492.834c-3.9,0-4.755-1.345-4.755-5.078V84.086h9.339V75.264H345.88V62.811H335.385l-2.212,12.454h-7.315v.011h-.593c-5.987.027-10.5,3.674-13.394,9.393l-3.653-9.4h-7.525v43.81h12.873V100.017c0-9.608,5.669-15.746,12.4-15.929H333v21.776c0,10.248,5.255,14.062,13.82,14.062a30.7,30.7,0,0,0,9.822-1.607Z" fill="#1d1d1b"/>
    <path id="Path_427" data-name="Path 427" d="M417.85,89.127v29.942H405.333V75.27h7.6l2.545,6.692" fill="#1d1d1b"/>
    <path id="Path_428" data-name="Path 428" d="M415.418,82c3.8-4.411,9.012-7.751,15.106-7.751,10.425,0,14.712,8.306,14.712,16.014v28.812H432.353V90.633c0-3.754-3.126-5.793-6.52-5.793-3.61,0-5.929,2.065-7.967,4.271" fill="#1d1d1b"/>
    <path id="Path_429" data-name="Path 429" d="M201.689,59.411h14.347l19.689,37.511V59.411h11.883V119.08H234.617L213.573,77.83v41.25H201.689Z" fill="#1d1d1b"/>
    <path id="Path_430" data-name="Path 430" d="M198.113,171.96l2.979-4.633a17.7,17.7,0,0,0,10.469,3.449c4.3,0,6.956-1.952,6.956-5.336,0-3.9-3.351-4.922-8.866-6.85-4.948-1.731-9.812-4.228-9.812-11.231,0-6.568,5.181-10.141,12.147-10.141a20.579,20.579,0,0,1,10.786,2.528l-2.378,4.927a17.783,17.783,0,0,0-8.3-2.01c-3.878,0-6.208,1.463-6.208,4.538,0,3.615,2.7,4.536,7.773,6.2,5.288,1.711,11.113,4.157,11.113,11.926,0,6.558-4.7,10.894-13.114,10.894a21.961,21.961,0,0,1-13.545-4.265" fill="#b1b1b1"/>
    <path id="Path_431" data-name="Path 431" d="M236.064,137.816h22.55v5.234H242.482V153.4h12.743v5.131H242.482V170.5H259.6v5.232H236.064Z" fill="#b1b1b1"/>
    <path id="Path_432" data-name="Path 432" d="M268.777,156.8c0-11.061,5.293-19.575,15.869-19.575,4.738,0,8.477,1.5,11.108,4.572l-3.738,4.33c-2.266-2.217-4.181-3.3-7.269-3.3-6.207,0-9.07,5.078-9.07,14.459,0,8.812,3.024,13.271,9.129,13.271,3.389,0,5.772-1.781,7.86-3.991l3.776,4.208a14.243,14.243,0,0,1-11.7,5.454c-10.9,0-15.969-8.313-15.969-19.426" fill="#b1b1b1"/>
    <path id="Path_433" data-name="Path 433" d="M306.9,161.218V137.811h6.466v24.455c0,5.207,1.292,8.617,6.79,8.617,5.449,0,6.8-3.41,6.8-8.617V137.811h6.531v23.407c0,9.4-3.615,15.008-13.384,15.008-9.607,0-13.207-5.611-13.207-15.008" fill="#b1b1b1"/>
    <path id="Path_434" data-name="Path 434" d="M373.052,175.729h-7.011l-7.277-16.078H352.77v16.078h-6.417V137.81H358.72c7.655,0,13.632,2.749,13.632,11.06,0,5.671-3.4,8.511-7.182,9.867ZM358.489,154.7c4.809,0,7.284-1.566,7.284-5.946,0-4.211-2.523-5.707-6.9-5.707h-6.1V154.7Z" fill="#b1b1b1"/>
    <path id="Path_435" data-name="Path 435" d="M384.035,137.816H406.58v5.234H390.448V153.4H403.17v5.131H390.448V170.5h17.1v5.232H384.035Z" fill="#b1b1b1"/>
    <path id="Path_436" data-name="Path 436" d="M418.388,137.811h9.469c12.355,0,18.3,6.692,18.3,18.823,0,12.361-6.047,19.1-17.973,19.1h-9.8Zm9.1,32.686c8.849,0,11.872-4.09,11.872-13.863,0-8.575-2.373-13.584-11.076-13.584h-3.449V170.5Z" fill="#b1b1b1"/>
    <path id="Path_437" data-name="Path 437" d="M93.267,212.762a91.213,91.213,0,1,1,91.219-91.213,91.328,91.328,0,0,1-91.219,91.213m0-153.576a62.374,62.374,0,1,0,44.09,18.264,62.023,62.023,0,0,0-44.09-18.264" fill="#fcc200"/>
    <rect id="Rectangle_775" data-name="Rectangle 775" width="7.111" height="7.111" transform="translate(192.631 16.284)" fill="#fcc200"/>
    <rect id="Rectangle_776" data-name="Rectangle 776" width="7.111" height="7.128" transform="translate(192.631 2.115)" fill="#fcc200"/>
    <rect id="Rectangle_777" data-name="Rectangle 777" width="6.644" height="6.945" transform="translate(172.619 23.347)" fill="#fcc200"/>
    <rect id="Rectangle_778" data-name="Rectangle 778" width="6.698" height="6.644" transform="translate(159.455 36.984)" fill="#1d1d1b"/>
    <rect id="Rectangle_779" data-name="Rectangle 779" width="7.445" height="6.697" transform="translate(179.262 30.287)" fill="#1d1d1b"/>
    <rect id="Rectangle_780" data-name="Rectangle 780" width="6.676" height="6.364" transform="translate(152.779 30.62)" fill="#1d1d1b"/>
    <rect id="Rectangle_781" data-name="Rectangle 781" width="6.644" height="6.644" transform="translate(172.619 36.984)" fill="#1d1d1b"/>
    <rect id="Rectangle_782" data-name="Rectangle 782" width="7.037" height="7.047" transform="translate(185.594 9.237)" fill="#1d1d1b"/>
    <rect id="Rectangle_783" data-name="Rectangle 783" width="12.975" height="7.063" transform="translate(172.619 16.284)" fill="#1d1d1b"/>
    <rect id="Rectangle_784" data-name="Rectangle 784" width="6.466" height="13.637" transform="translate(166.153 23.347)" fill="#1d1d1b"/>
    <path id="Path_438" data-name="Path 438" d="M166.153,43.628V50.32h-6.7V43.628H148.342v4.82h-5.96v5.944h6.654v6.627h-6.654V54.392h-7.069v10.4h-6.681v6.633h-4.438v6.666H119.32c-5.476,8.145-19.215,33.546-23.363,43.886C81,101.156,69.377,92.9,60.222,89.918c-4.927-1.484-10.877,3.889-2.679,12.346,18.827,20.705,24.75,37.85,30.474,51.53,3.034,7.207,16.606,8.327,19.328.983,5.794-15.52,14.191-32.959,24.149-47.279v-7.419H136.8V93.388h5.58V85.63h6.675V78.152h-6.745v-6.8h6.745v6.8h6.6l-.016-6.725h5.288V63.3h5.96V57.72h5.729V43.628Z" fill="#1d1d1b"/>
  </g>
</svg>
