<?xml version="1.0" encoding="utf-8"?>
<!-- Generator: Adobe Illustrator 23.0.3, SVG Export Plug-In . SVG Version: 6.00 Build 0)  -->
<svg version="1.2" baseProfile="tiny" id="Livello_1"
	 xmlns="http://www.w3.org/2000/svg" xmlns:xlink="http://www.w3.org/1999/xlink" x="0px" y="0px" viewBox="0 0 20 20"
	 xml:space="preserve">
<g id="Livello_5">
</g>
<g id="Livello_3">
</g>
<g id="Livello_6">
</g>
<g id="Livello_11">
</g>
<g id="Livello_8">
</g>
<g id="Livello_7">
</g>
<g id="Livello_10">
</g>
<g id="Livello_9">
</g>
<g id="Livello_4" display="none">
</g>
<g id="Livello_12">
</g>
<g id="Livello_13">
</g>
<g id="Livello_14">
</g>
<g id="Livello_15">
</g>
<g id="Livello_16">
	<path fill="#00A99D" d="M18.9,12.3c-1.6-3.4-5.1-5.7-8.9-5.7s-7.3,2.2-8.9,5.7L1,12.5l0.1,0.2c1.6,3.4,5.1,5.7,8.9,5.7
		s7.3-2.2,8.9-5.7l0.1-0.2L18.9,12.3z M10,17.4c-3.3,0-6.4-1.9-7.9-4.9c1.5-3,4.5-4.9,7.9-4.9s6.4,1.9,7.9,4.9
		C16.4,15.5,13.3,17.4,10,17.4z M10,9.1c-1.9,0-3.4,1.5-3.4,3.4S8.1,16,10,16s3.4-1.5,3.4-3.4S11.9,9.1,10,9.1z M10,15
		c-1.3,0-2.4-1.1-2.4-2.4s1.1-2.4,2.4-2.4s2.4,1.1,2.4,2.4S11.3,15,10,15z M10,1.6c0.3,0,0.5,0.2,0.5,0.5v2.1c0,0.3-0.2,0.5-0.5,0.5
		S9.5,4.5,9.5,4.2V2.1C9.5,1.8,9.7,1.6,10,1.6z M16.5,6.9c-0.2-0.2-0.3-0.5-0.1-0.7l1.3-1.7c0.2-0.2,0.5-0.3,0.7-0.1
		c0.2,0.2,0.3,0.5,0.1,0.7l-1.3,1.7C17.1,6.9,16.9,7,16.8,7C16.7,7,16.6,6.9,16.5,6.9z M2.4,4.5l1.3,1.7c0.2,0.2,0.1,0.5-0.1,0.7
		C3.4,6.9,3.3,7,3.2,7C3.1,7,2.9,6.9,2.8,6.8L1.6,5.1C1.4,4.9,1.4,4.6,1.7,4.4C1.9,4.2,2.2,4.3,2.4,4.5z"/>
</g>
</svg>
