<?xml version="1.0" encoding="utf-8"?>
<!-- Generator: Adobe Illustrator 23.0.3, SVG Export Plug-In . SVG Version: 6.00 Build 0)  -->
<svg version="1.2" baseProfile="tiny" id="Livello_1"
	 xmlns="http://www.w3.org/2000/svg" xmlns:xlink="http://www.w3.org/1999/xlink" x="0px" y="0px" viewBox="0 0 20 20"
	 xml:space="preserve">
<g id="Livello_5">
</g>
<g id="Livello_3">
</g>
<g id="Livello_6">
</g>
<g id="Livello_11">
</g>
<g id="Livello_8">
</g>
<g id="Livello_7">
</g>
<g id="Livello_10">
</g>
<g id="Livello_9">
</g>
<g id="Livello_4" display="none">
</g>
<g id="Livello_12">
</g>
<g id="Livello_13">
</g>
<g id="Livello_14">
</g>
<g id="Livello_15">
</g>
<g id="Livello_16">
	<path fill="#00A99D" d="M12.6,7.8c0.1-0.3,0.4-0.4,0.7-0.3c0.9,0.4,1.9,1.5,2.3,2.2c0.1,0.3,0,0.5-0.2,0.7c-0.1,0-0.1,0-0.2,0
		c-0.2,0-0.4-0.1-0.5-0.3c-0.3-0.6-1.1-1.5-1.8-1.8C12.6,8.3,12.5,8,12.6,7.8z M20,16.7c0-0.3-0.2-0.5-0.5-0.5H1.4
		c-0.3,0-0.5,0.2-0.5,0.5s0.2,0.5,0.5,0.5h18.1C19.7,17.2,20,16.9,20,16.7z M9.9,5V3.8H8c-0.3,0-0.5-0.2-0.5-0.5S7.7,2.8,8,2.8h4.8
		c0.3,0,0.5,0.2,0.5,0.5s-0.2,0.5-0.5,0.5h-1.9V5c4.4,0.3,7.8,3.9,7.8,8.3l0,0l0,0V14H19c0.3,0,0.5,0.2,0.5,0.5S19.3,15,19,15h-0.8
		l0,0l0,0H2.6l0,0l0,0H1.8c-0.3,0-0.5-0.2-0.5-0.5S1.5,14,1.8,14h0.3v-0.7l0,0l0,0C2.1,8.9,5.6,5.2,9.9,5z M10.4,5.9
		c-4,0-7.3,3.3-7.3,7.3l0,0l0,0v0.7h14.6v-0.7l0,0l0,0C17.7,9.2,14.5,5.9,10.4,5.9z M2.8,6.2C2.9,6.3,3,6.3,3.2,6.3
		c0.1,0,0.3-0.1,0.4-0.2c0.2-0.2,0.2-0.5,0-0.7l-1.1-1C2.3,4.2,2,4.2,1.8,4.4C1.5,4.7,1.6,5,1.8,5.2L2.8,6.2z M1.8,8.3
		C2,8.3,2.2,8.2,2.3,8s0-0.5-0.2-0.7L0.8,6.7c-0.2-0.1-0.5,0-0.7,0.2C0,7.2,0.1,7.5,0.3,7.6l1.3,0.6C1.7,8.3,1.8,8.3,1.8,8.3z"/>
</g>
</svg>
